<svg id="Layer_1" data-name="Layer 1" xmlns="http://www.w3.org/2000/svg" xmlns:xlink="http://www.w3.org/1999/xlink" viewBox="0 0 1368.47 275.92"><defs><style>.cls-1{fill:url(#linear-gradient);}.cls-2{fill:url(#linear-gradient-2);}</style><linearGradient id="linear-gradient" x1="67.74" y1="209.8" x2="445.23" y2="276.36" gradientUnits="userSpaceOnUse"><stop offset="0.04" stop-color="#07f4c1"/><stop offset="0.11" stop-color="#07efbe"/><stop offset="0.19" stop-color="#09e0b7"/><stop offset="0.28" stop-color="#0ac8aa"/><stop offset="0.37" stop-color="#0da698"/><stop offset="0.47" stop-color="#107a81"/><stop offset="0.57" stop-color="#144565"/><stop offset="0.63" stop-color="#172252"/></linearGradient><linearGradient id="linear-gradient-2" x1="476.1" y1="307.59" x2="1455.47" y2="307.59" gradientUnits="userSpaceOnUse"><stop offset="0.35" stop-color="#172252"/><stop offset="1" stop-color="#07f4c1"/></linearGradient></defs><path class="cls-1" d="M236.56,98.09l1.7,0,82.24-.86s70.08,5.23,70.08,73.33c0,48.65-50.57,72.62-50.57,72.62L428.63,370.5H376.48s-68.57-98.58-75.68-108-28.64-32.82-28.64-32.82,4,.06,14.68-1.66,35.92-14.16,35.92-14.16,22.17-8.59,22.17-42.29c0-31.55-37.09-35.7-37.09-35.7l-6.22-.35-36.75-.94s-.34-1.28-.75-2.57a134.14,134.14,0,0,0-9.45-16.31c-3.43-4.82-17.11-16.17-17.11-16.17ZM219.69,223.37s30.44-20.52,30.44-64.35c0-47.48-54.7-61.74-77.74-61.74-22.09,0-85.39,3.31-85.39,3.31V370.5l105.39-2.43s75.82-12.61,75.82-79.66C268.21,234.85,219.69,223.37,219.69,223.37ZM133.43,331.2V135.72s69-13.39,69,37.74-54.27,56.17-54.27,56.17l-.39.41.36.33s71.51-.39,71.51,55.44S133.43,331.2,133.43,331.2Z" transform="translate(-87 -97.28)"/><path class="cls-2" d="M476.1,242h54.36c21.59,0,41.21,7.56,41.21,31.49,0,13.5-9,25.92-22.31,28.8v.36c16.55,2.16,27.17,14.58,27.17,31.32,0,12.24-4.32,36.54-46.07,36.54H476.1Zm12.24,56.33h42.12c19.62,0,29-9.72,29-21.78,0-16-9.89-24.11-29-24.11H488.34Zm0,61.74h42.12c18.17.18,33.83-5.94,33.83-26.46,0-16.38-12.41-24.84-33.83-24.84H488.34Z" transform="translate(-87 -97.28)"/><path class="cls-2" d="M594.18,242h11.34V370.5H594.18Z" transform="translate(-87 -97.28)"/><path class="cls-2" d="M710.45,324.06c0,26.64-15.48,49.14-43.91,49.14s-43.92-22.5-43.92-49.14,15.48-49.14,43.92-49.14S710.45,297.42,710.45,324.06Zm-76.49,0c0,19.8,10.8,39.6,32.58,39.6s32.57-19.8,32.57-39.6-10.8-39.6-32.57-39.6S634,304.26,634,324.06Z" transform="translate(-87 -97.28)"/><path class="cls-2" d="M792.89,306.78c-3.06-13.86-11.51-22.32-26.27-22.32-21.78,0-32.58,19.8-32.58,39.6s10.8,39.6,32.58,39.6c14,0,25.55-11,27-26.46H805c-3.06,22.32-17.64,36-38.33,36-28.44,0-43.92-22.5-43.92-49.14s15.48-49.14,43.92-49.14c19.79,0,35.09,10.62,37.61,31.86Z" transform="translate(-87 -97.28)"/><path class="cls-2" d="M820.8,242h11.33v80.63l51.48-45h15.12L859.13,312l42.3,58.5H887.21l-36.72-50.58-18.36,15.3V370.5H820.8Z" transform="translate(-87 -97.28)"/><path class="cls-2" d="M913,242h58.85c21.24,0,39.06,10.26,39.06,33.47,0,16.2-8.46,29.52-25,32.76v.36c16.74,2.16,21.6,13.68,22.5,29,.54,8.82.54,26.46,5.94,32.94h-13.5c-3.06-5-3.06-14.58-3.42-20-1.08-18-2.52-38-25.74-37.08H925.2V370.5H913Zm12.24,61h45.71c14.94,0,27.72-9.36,27.72-25s-9.36-25.55-27.72-25.55H925.2Z" transform="translate(-87 -97.28)"/><path class="cls-2" d="M1037.51,327.12c.18,16.56,8.82,36.54,30.6,36.54,16.56,0,25.56-9.72,29.16-23.76h11.34c-4.86,21.06-17.1,33.3-40.5,33.3-29.52,0-41.94-22.68-41.94-49.14,0-24.48,12.42-49.14,41.94-49.14,29.88,0,41.76,26.1,40.86,52.2Zm60.12-9.54c-.54-17.1-11.16-33.12-29.52-33.12-18.54,0-28.8,16.2-30.6,33.12Z" transform="translate(-87 -97.28)"/><path class="cls-2" d="M1113.83,277.63h12.6l29.16,81.53h.36l28.8-81.53h11.7l-34.74,92.87h-12.06Z" transform="translate(-87 -97.28)"/><path class="cls-2" d="M1207.79,242h11.34v18.18h-11.34Zm0,35.64h11.34V370.5h-11.34Z" transform="translate(-87 -97.28)"/><path class="cls-2" d="M1247.57,327.12c.18,16.56,8.82,36.54,30.6,36.54,16.56,0,25.56-9.72,29.16-23.76h11.34c-4.86,21.06-17.1,33.3-40.5,33.3-29.52,0-41.94-22.68-41.94-49.14,0-24.48,12.42-49.14,41.94-49.14,29.88,0,41.76,26.1,40.86,52.2Zm60.12-9.54c-.54-17.1-11.16-33.12-29.52-33.12-18.54,0-28.8,16.2-30.6,33.12Z" transform="translate(-87 -97.28)"/><path class="cls-2" d="M1325,277.63H1337l23.76,79.55h.36l22.68-79.55h12.78l22.68,79.55h.36l23.76-79.55h12.06l-29.88,92.87h-12.42l-22.86-78.12H1390l-22.68,78.12h-12.42Z" transform="translate(-87 -97.28)"/></svg>